# xmcd
#
# Track frame offsets:
#	150
#	5736
#	21534
#	44377
#	62780
#	83145
#	102231
#	126016
#	148554
#	166987
#	169005
#	178836
#	180646
#	196424
#	211682
#	233090
#	252381
#	277761
#	298519
#
# Disc length: 4024 seconds
#
# Revision: 0
# Processed by: cddbd v1.5.1PL0 Copyright (c) Steve Scherf et al.
# Submitted via: dBpowerAMP V4.0
#
DISCID=0d0fb613
DTITLE=Blackstreet - Another Level
DYEAR=1900
DGENRE=Rap
TTITLE0=Black and Street Intro
TTITLE1=This Is How We Roll
TTITLE2=No Diggity (& Dr. Dre)
TTITLE3=Fix
TTITLE4=Good Lovin'
TTITLE5=Let's Stay In Love
TTITLE6=We Gonna Take U Back (lude) - Don't Leave Me
TTITLE7=Never Gonna Let You Go
TTITLE8=I Wanna Be Your Man
TTITLE9=Taja's Lude (interlude)
TTITLE10=My Paradise (interlude)
TTITLE11=Deja's Poem
TTITLE12=(Money Can't) Buy Me Love
TTITLE13=Blackstreet (On The Radio)
TTITLE14=I Can't Get You (Out Of My Mind)
TTITLE15=I'll Give It To You
TTITLE16=Happy Song (Tonite)
TTITLE17=Motherlude
TTITLE18=The Lord Is Real (Time Will Reveal)
EXTD=
EXTT0=
EXTT1=
EXTT2=
EXTT3=
EXTT4=
EXTT5=
EXTT6=
EXTT7=
EXTT8=
EXTT9=
EXTT10=
EXTT11=
EXTT12=
EXTT13=
EXTT14=
EXTT15=
EXTT16=
EXTT17=
EXTT18=
PLAYORDER=
